<?xml version="1.0" encoding="UTF-8"?>
<svg id="b" data-name="Layer 2" xmlns="http://www.w3.org/2000/svg" width="146.789" height="31.944" viewBox="0 0 146.789 31.944">
  <g id="c" data-name="1 SECTION">
    <g>
      <path id="d" data-name="s" d="M116.188,30.258c.602.396,1.32.603,2.084.603,1.342,0,2.144-.559,2.144-1.495,0-1.007-.972-1.252-1.883-1.402h0c-.674-.12-1.206-.214-1.206-.66,0-.361.377-.577,1.009-.577.452,0,.931.112,1.349.316.054.025.097.015.132-.03l.392-.596c.015-.022.021-.043.017-.058-.006-.02-.026-.033-.043-.04-.579-.283-1.179-.426-1.785-.426-.989,0-2.144.37-2.144,1.41,0,1.02,1.096,1.335,2.05,1.496.406.065,1.019.163,1.019.613,0,.367-.404.605-1.03.605-.559,0-1.129-.173-1.605-.488-.029-.018-.05-.026-.066-.026-.024,0-.037.017-.054.044l-.396.61c-.019.028-.028.05-.024.063.003.011.018.024.042.036Z" fill="#e5e5e4" stroke-width="0"/>
      <path id="e" data-name="l" d="M114.974,30.861c.212,0,.415-.01.586-.028.016-.002.059-.007.059-.089v-.694c0-.051-.015-.079-.092-.08-.125.009-.268.019-.398.019-.518,0-.749-.285-.749-.924v-4.818c0-.051-.015-.079-.094-.079h-.895c-.079,0-.094.028-.094.079v4.855c0,1.133.595,1.757,1.676,1.757Z" fill="#e5e5e4" stroke-width="0"/>
      <path id="f" data-name="a" d="M109.814,30.861c.67,0,1.445-.104,2.074-.279.044-.017.069-.051.069-.1v-2.737c0-1.188-.746-1.842-2.102-1.842-.798,0-1.492.169-2.006.488-.011.008-.022.016.018.073l.415.57c.044.064.101.036.124.022.37-.198.866-.31,1.366-.31.783,0,1.103.292,1.103,1.008v.247l-.069-.008c-.418-.05-.756-.075-1.033-.075-1.409,0-2.216.525-2.216,1.439,0,1.308,1.415,1.504,2.258,1.504ZM109.804,28.667c.333,0,.744.039,1.018.076l.054.007v1.162l-.049.011c-.254.055-.653.114-1.012.114-.74,0-1.165-.251-1.165-.689,0-.451.388-.68,1.155-.68Z" fill="#e5e5e4" stroke-width="0"/>
      <path id="g" data-name="u" d="M104.404,30.861c.695,0,1.411-.132,2.016-.371.052-.02.075-.055.075-.112v-4.293c0-.046-.032-.07-.094-.07h-.905c-.073,0-.084.034-.084.07v3.794l-.043.014c-.231.072-.592.115-.966.115-.856,0-1.238-.374-1.238-1.214v-2.709c0-.036-.01-.07-.084-.07h-.905c-.087,0-.094.035-.094.07v2.728c0,1.692,1.262,2.048,2.32,2.048Z" fill="#e5e5e4" stroke-width="0"/>
      <path id="h" data-name="s" d="M96.806,30.258c.602.396,1.32.603,2.084.603,1.342,0,2.144-.559,2.144-1.495,0-1.007-.972-1.252-1.883-1.402h0c-.674-.12-1.206-.214-1.206-.66,0-.361.377-.577,1.009-.577.452,0,.931.112,1.349.316.054.025.097.015.132-.03l.392-.596c.015-.022.021-.043.017-.058-.006-.02-.026-.033-.043-.04-.579-.283-1.179-.426-1.785-.426-.989,0-2.144.37-2.144,1.41,0,1.02,1.096,1.335,2.05,1.496.406.065,1.019.163,1.019.613,0,.367-.404.605-1.03.605-.559,0-1.129-.173-1.605-.488-.029-.018-.05-.026-.066-.026-.024,0-.037.017-.054.044l-.396.61c-.019.028-.028.05-.024.063.003.011.018.024.042.036Z" fill="#e5e5e4" stroke-width="0"/>
      <path id="i" data-name="τόνος" d="M95.145,24.141c-.356,0-.614.227-.614.539,0,.307.264.539.614.539.344,0,.604-.232.604-.539,0-.312-.254-.539-.604-.539Z" fill="#e5e5e4" stroke-width="0"/>
      <path id="j" data-name="i" d="M95.572,30.748c.079,0,.094-.028.094-.079v-4.583c0-.026,0-.07-.094-.07h-.895c-.094,0-.094.044-.094.07v4.583c0,.051.015.079.094.079h.895Z" fill="#e5e5e4" stroke-width="0"/>
      <path id="k" data-name="v" d="M91.723,30.748c.06,0,.099-.024.12-.075l1.831-4.592c.008-.02.008-.038.001-.048-.008-.011-.03-.018-.058-.018h-.978c-.033,0-.091.008-.107.06l-1.295,3.67h-.109l-1.294-3.669c-.016-.051-.073-.062-.118-.062h-.968c-.037,0-.058.011-.064.021-.008.012,0,.032.005.041l1.823,4.598c.019.046.045.073.119.073h1.092Z" fill="#e5e5e4" stroke-width="0"/>
      <path id="l" data-name="ς" d="M146.769,15.586c.084-.535-.096-1.195-.447-1.642-.266-.339-.647-.59-1.131-.746-1.375-.443-2.844-.669-4.314-.669-.468,0-.937.023-1.402.069-1.739.173-5.887.896-6.843,3.869-.603,1.874.73,3.58,2.178,4.552.986.661,2.242,1.229,3.634,1.642.308.091.626.168.934.242.382.092.777.187,1.157.311.313.102.838.273.937.739.048.227.142,1.225-.1,1.84-.04.101-.15.378-.036.593.055.105.148.167.193.197.168.112.34.118.522.125.651.022,1.223-.33,1.538-.946.52-1.018.305-2.101.296-2.147-.281-1.384-1.35-2.27-3.363-2.789-.162-.042-.326-.083-.492-.124-1.341-.333-2.727-.677-3.686-1.673-.401-.416-.64-.92-.673-1.419-.073-1.115.961-1.878,1.868-2.193,2.309-.801,4.878-.15,6.61.408.446.144.906.272,1.35.396l.026.007c.168.047.613.171.919-.037.167-.114.279-.324.324-.608Z" fill="#e5e5e4" stroke-width="0"/>
      <path id="m" data-name="η" d="M129.476,30.995c.062-.022.113-.043.163-.069.464-.241.65-.72.729-.925,2.993-7.748,1.492-12.514.331-14.665-.402-.744-.995-1.394-1.714-1.879-1.967-1.325-4.516-1.306-6.342.048-1.261.936-1.957,2.34-2.466,3.366-.054.11-.098.201-.126.262l-.071.152-.045-.162c-.161-.583-.354-1.16-.571-1.713-.024-.06-.238-.602-.506-1.159-.097-.202-.199-.404-.304-.601-.023-.044-.045-.09-.067-.135-.04-.084-.078-.163-.127-.236-.065-.096-.148-.161-.27-.212-.206-.086-.458-.098-.709-.034-.409.105-.808.344-1.094.656-.099.109-.327.393-.291.686.02.156.098.311.174.46.031.062.062.123.089.183.099.224.196.456.29.689.343.85.637,1.72.875,2.587.244.89.431,1.785.555,2.661.025.176.091.642.404.844.422.271,1.06-.111,1.37-.38.422-.366.606-.687,1.148-1.8.899-1.843,1.071-2.143,1.303-2.478.361-.522.674-.972,1.247-1.415.734-.567,1.548-.863,2.328-.863.299,0,.593.043.875.132,1.012.316,1.804,1.183,2.173,2.38,1.035,3.354.46,8.037-1.539,12.527-.084.188-.27.605-.093.901.318.533,1.674.407,2.281.191Z" fill="#e5e5e4" stroke-width="0"/>
      <path id="n" data-name="δ" d="M121.085,2.971c.084-.535-.096-1.195-.447-1.642-.267-.339-.647-.59-1.131-.746-4.24-1.365-8.623.09-8.667.105-1.769.601-2.836,1.306-3.461,2.285-.15.234-.349.607-.45,1.049-.19.838-.031,1.726.46,2.568.625,1.072,1.427,2.06,2.202,3.016.663.818,1.35,1.663,1.926,2.561.968,1.509,1.351,2.776,1.17,3.873-.186,1.124-.931,2.136-2.097,2.849-1.039.635-2.347.98-3.5.92-.331-.017-3.235-.216-3.229-1.987.002-.466.224-.863.409-1.113,1.083-1.459,3.248-2,4.912-2.02h.053c.375-.005.801-.009,1.053-.298.301-.344.282-.981-.04-1.364-.195-.232-.547-.462-1.644-.462-.101,0-.207.002-.321.006-1.852.067-3.6.608-4.92,1.525-1.241.862-2.122,2.113-2.357,3.349-.267,1.406.428,2.806,1.858,3.745,1.133.744,2.363.899,3.862.903h.027c1.674,0,3.453-.418,4.884-1.147,1.687-.861,2.838-2.104,3.327-3.596.056-.17.102-.345.138-.519.318-1.553-.139-2.878-.921-4.388-.689-1.329-1.571-2.689-2.697-4.158-.197-.257-.4-.511-.603-.764-.27-.338-.55-.687-.812-1.041-.464-.627-.867-1.302-.679-1.992.216-.792,1.281-1.105,1.853-1.273,2.751-.806,6.7-.128,8.6.399.168.047.614.17.919-.037.167-.114.279-.324.324-.608Z" fill="#e5e5e4" stroke-width="0"/>
      <path id="o" data-name="τόνος" d="M98.341,11.581c.387-.096.584-.469,1.031-1.381.873-1.778.892-1.945.851-2.07-.127-.39-.561-.747-1.133-.931-.24-.077-.48-.115-.703-.115-.314,0-.595.075-.799.222-.415.298-.422,1.01-.437,2.429-.012,1.206.193,1.525.396,1.679h0c.221.167.533.233.794.169Z" fill="#e5e5e4" stroke-width="0"/>
      <path id="p" data-name="ι" d="M96.743,13.561c-.022.085-.03.172-.039.264-.005.05-.01.101-.017.151-.031.221-.058.446-.081.667-.042.416-.069.84-.081,1.259-.019.721.006,1.446.077,2.156.053.533.131,1.055.231,1.552.04.198.081.382.126.562.161.648.499,1.021.686,1.186.426.377.945.575,1.39.534.256-.024.463-.13.596-.304.226-.294.132-.739.092-.93-.182-.866-.313-1.771-.387-2.69-.072-.894-.093-1.811-.061-2.727.009-.246.022-.497.038-.745.004-.066.012-.133.021-.202.02-.166.041-.338.006-.492-.066-.288-.377-.48-.508-.549-.32-.169-.698-.26-1.063-.26-.064,0-.127.003-.19.009-.258.024-.491.119-.656.269-.097.088-.153.177-.181.289Z" fill="#e5e5e4" stroke-width="0"/>
      <path id="q" data-name="μ" d="M86.278,21.469c2.224.269,4.362-1.215,5.621-2.694l.075-.088.032.11c.125.428.239.778.36,1.101.069.185.141.365.214.535.261.612.655.93.866,1.065.481.306,1.026.422,1.458.311.25-.064.437-.2.541-.394.176-.326.013-.751-.057-.932-.318-.828-.591-1.701-.811-2.596-.214-.873-.38-1.776-.494-2.684-.031-.246-.058-.496-.081-.742-.006-.065-.009-.133-.012-.202-.007-.167-.014-.34-.072-.486-.111-.274-.449-.415-.589-.462-.403-.137-.868-.157-1.278-.053-.251.064-.466.194-.605.367-.081.102-.123.199-.133.314-.014.154-.002.314.01.468.013.173.027.352.005.529-.042.341-.122.668-.239.973-.321.837-.944,1.63-1.71,2.177-.615.439-1.607.926-2.848.744-2.122-.309-3.701-2.413-3.519-4.69.126-.911.269-1.739.437-2.534.41-1.939.977-3.98,1.783-6.423.147-.446.306-.895.46-1.33.186-.526.379-1.069.55-1.607l.026-.08c.174-.541.537-1.666-.04-1.998-.093-.054-.303-.081-.547-.081-.175,0-.368.014-.549.044-.416.068-.705.205-.875.308-.291.176-.7.546-.988,1.304-2.375,6.24-3.355,15.219-3.364,15.309-.009.084-.893,8.482.629,13.021.157.468.426.848.779,1.1.461.329,1.159.489,1.697.39.274-.05.475-.161.58-.32.096-.145.176-.42.016-.909-.751-2.29-.844-4.737-.934-7.103l-.016-.421c-.043-1.104-.055-2.228-.036-3.34l.003-.161.106.121c1.017,1.163,2.278,1.888,3.549,2.041Z" fill="#e5e5e4" stroke-width="0"/>
      <path id="r" data-name="α" d="M62.763,16.345c-.582.948-.68,2.036-.277,3.064.446,1.137,1.443,2.029,2.667,2.384,1.817.527,4.038.399,5.796-.333.801-.334,2.782-1.264,3.871-2.68l.081-.105.04.114c.149.659.307,1.166.413,1.476.215.63.585.975.785,1.124.457.339.992.496,1.431.415.253-.046.45-.168.568-.353.2-.312.068-.748.012-.934-.352-1.164-.61-2.366-.769-3.571-.079-.604-.133-1.21-.16-1.803-.013-.289-.02-.591-.021-.897-.001-.605-.247-.954-.798-1.131-.428-.137-1.087-.181-1.538.149-.016.012-.034.024-.054.037-.039.026-.084.055-.13.097-.462.417-.435,1.149-.423,1.462l.002.064c.036,1.446-1.125,2.679-2.106,3.459-.992.788-2.154,1.321-3.36,1.54-1.105.2-2.663.352-3.439-.649-.392-.506-.51-1.278-.286-1.878.283-.756,1.149-1.452,2.441-1.959,1.175-.461,2.55-.697,3.677-.629l.052.003c.338.022.968.062,1.272-.302.288-.345.27-.983-.039-1.366-.386-.48-1.079-.621-1.8-.621-.673,0-1.368.123-1.86.211-2.142.379-4.843,1.644-6.051,3.613Z" fill="#e5e5e4" stroke-width="0"/>
      <path id="s" data-name="ρ" d="M52.803,22.159c2.655-.114,4.689-1.08,4.912-1.189.925-.455,1.972-.97,2.931-2.097,1.4-1.648,1.379-3.582-.054-4.927-.821-.771-2.034-1.311-3.244-1.443-.33-.036-.666-.054-1.004-.054-1.911,0-3.909.566-5.51,1.583-1.548.984-3.558,3.045-4.338,7.274-.611,3.311-.498,6.606.308,9.042.213.643.581.996.781,1.149.455.347,1.12.516,1.656.422.287-.051.507-.175.618-.351.201-.318.071-.763.016-.952-1.065-3.645-.795-9.094-.358-10.872.277-1.123.798-2.132,1.51-2.918,1.224-1.353,3.301-2.236,5.167-2.184.924.023,2.459.474,2.642,1.585.173,1.051-1.257,2.038-1.726,2.363l-.046.032c-2.022,1.403-4.385,1.418-4.449,1.418-.013.003-.009,0-.014,0-.084,0-.168-.001-.25-.003-.501-.009-.974-.017-1.236.308-.282.351-.266,1.003.033,1.395.302.397.857.454,1.656.42Z" fill="#e5e5e4" stroke-width="0"/>
      <path id="t" data-name="β" d="M46.945,7.369c-.164-1.161-.775-2.058-1.814-2.665-.952-.556-2.148-.788-3.316-.788-1.038,0-2.053.183-2.856.487-2.743,1.037-5.131,3.602-6.387,6.861-2.06,5.342-1.744,10.205-1.03,12.17.174.479.437.849.781,1.102.46.337,1.131.5,1.669.403.286-.051.496-.166.607-.334.198-.3.068-.736.018-.901-.641-2.143-1.03-6.992-.214-10.042,1.511-5.65,4.774-6.877,6.106-7.143,1.031-.205,2.829-.045,3.523.79.349.42.392.952.129,1.582-.565,1.352-1.76,2.334-2.663,2.921-1.196.776-2.421,1.016-4.011,1.152-.657.056-1.22.15-1.453.745-.091.231-.111.552-.061.953.035.279.093.481.184.637.014.024.027.048.041.073.064.116.131.235.231.314.244.193.61.1,1.163-.04l.051-.013c.354-.09.711-.173,1.067-.257.229-.054.459-.107.688-.163.655-.158,1.425-.305,2.176-.194.648.096,1.44.392,1.722.935.154.297.137.63-.05.99-.804,1.549-3.087,2.124-3.537,2.224-1.377.306-2.34.229-2.35.228-.087.006-.179.01-.266.015-.611.031-.979.05-1.229.337-.361.414-.262,1.15.036,1.594.302.45.857.515,1.654.477,1.455-.071,2.556-.24,3.465-.532,1.043-.335,2.227-.751,3.066-1.452.664-.555,2.428-2.028,1.874-3.826-.415-1.347-1.863-2.127-2.467-2.399l-.089-.04.076-.063c.79-.652,2.231-1.988,2.999-3.605.423-.89.58-1.742.468-2.533Z" fill="#e5e5e4" stroke-width="0"/>
      <path id="u" data-name="Α" d="M29.209,14.565h.018c.237-.002.451-.044.639-.145.355-.19.668-.6.799-1.043.082-.279.076-.533-.016-.696-.199-.355-.825-.33-1.24-.313-.1.004-.188.007-.256.005-.543-.017-1.129-.031-1.741-.041h-.053s-.007-.053-.007-.053c-.081-.585-.177-1.151-.286-1.681-.496-2.414-1.315-5.433-3.261-7.367-.756-.751-1.635-1.201-2.542-1.301-4.007-.441-7.248,2.625-9.891,5.682-.713.825-1.686,2.184-3.59,5.014,0,0-.121.179-.32.493l-.016.026-.031.003c-2.39.217-4.418.456-5.864.691-.013.002-.036.003-.067.003-.115.001-.354.003-.603.131-.358.184-.678.588-.815,1.028-.086.277-.084.532.006.697.272.5,1.354.353,1.477.333,1.238-.186,2.712-.36,4.382-.519l.116-.011-.056.101c-1.428,2.594-3.038,6.133-2.595,8.263.038.181.106.369.113.39.192.627.688,1.03.744,1.074h0s.028.022.028.022c.468.343,1.14.506,1.678.409.286-.051.495-.166.606-.334.201-.303.071-.728.016-.91-.335-1.098.062-2.406.381-3.457.299-.985.698-2.013,1.224-3.153.406-.881.866-1.777,1.365-2.664l.016-.029.034-.002c6.023-.423,12.163-.567,15.288-.615h.059s.004.058.004.058c.124,2.031.131,4.068.136,5.556l.002.619c0,.114,0,.381.163.648.398.649,1.503,1.01,1.981.775.242-.119.297-.456.348-1.479.067-1.344.097-2.532.091-3.63-.005-.874-.033-1.718-.084-2.51l-.004-.065h.066c.557-.003,1.082-.005,1.561-.003ZM24.676,12.318c-4.133.019-8.944.208-13.547.531l-.125.009.069-.104c.338-.51.68-1.003,1.015-1.466,1.694-2.336,3.157-3.925,4.742-5.151.657-.507,1.234-.865,1.817-1.126.954-.453,1.821-.566,2.574-.335,1.862.571,2.656,3.415,2.917,4.349.252.902.448,1.956.599,3.223l.008.068h-.069Z" fill="#e5e5e4" stroke-width="0"/>
    </g>
  </g>
</svg>